<?xml version="1.0"?><svg fill="#000000" xmlns="http://www.w3.org/2000/svg" viewBox="0 0 24 24" width="24px" height="24px">    <path d="M 16.416016 2 C 15.905516 1.998125 15.396172 2.1882656 15.013672 2.5722656 L 5.8554688 11.433594 L 3.15625 18.128906 C 2.60225 19.502906 3.6147031 21 5.0957031 21 L 21 21 L 21 19 L 7.9804688 19 L 12.212891 17.902344 L 21.414062 9 C 21.792063 8.622 22 8.1199375 22 7.5859375 C 22 7.0509375 21.792063 6.548875 21.414062 6.171875 L 17.828125 2.5859375 C 17.438625 2.1964375 16.926516 2.001875 16.416016 2 z M 16.414062 4 L 20.013672 7.5722656 L 14.917969 12.503906 L 11.332031 8.9179688 L 16.414062 4 z M 9.8945312 10.308594 L 13.480469 13.894531 L 12.166016 15.166016 L 8.5800781 11.580078 L 9.8945312 10.308594 z M 7.3320312 13.160156 L 10.460938 16.289062 L 5.6367188 17.542969 L 7.3320312 13.160156 z"/></svg>