<?xml version="1.0" encoding="UTF-8"?>
<svg width="16px" height="17px" viewBox="0 0 16 17" version="1.1" xmlns="http://www.w3.org/2000/svg" xmlns:xlink="http://www.w3.org/1999/xlink">
    <title>icons8-outline-list</title>
    <g id="3rd-Iteration" stroke="none" stroke-width="1" fill="none" fill-rule="evenodd">
        <g id="-3.1---Tooltips" transform="translate(-1386.000000, -79.000000)" fill="#8D8D8D" fill-rule="nonzero">
            <g id="icons8-outline-list" transform="translate(1386.000000, 79.000000)">
                <path d="M1.77777778,0 L0,1.78947368 L1.77777778,1.78947368 L1.77777778,4.47368421 L3.55555556,4.47368421 L3.55555556,0 L1.77777778,0 Z M5.33333333,1.78947368 L5.33333333,4.47368421 L16,4.47368421 L16,1.78947368 L5.33333333,1.78947368 Z M7.11111111,8.05263158 L7.11111111,10.7368421 L16,10.7368421 L16,8.05263158 L7.11111111,8.05263158 Z M4,8.05263158 C4.76516587,8.05263158 5.33333333,8.33858455 5.33333333,8.72368421 L5.33333333,9.39473684 L5.33333333,10.0657895 C5.33333333,10.4508891 4.76516587,10.7368421 4,10.7368421 C3.23483413,10.7368421 2.66666667,10.4508891 2.66666667,10.0657895 L2.66666667,8.72368421 C2.66666667,8.33858455 3.23483413,8.05263158 4,8.05263158 Z M5.66666667,14.3157895 C6.43183253,14.3157895 7,14.6017424 7,14.9868421 L7,15.6578947 L7,16.3289474 C7,16.714047 6.43183253,17 5.66666667,17 C4.9015008,17 4.33333333,16.714047 4.33333333,16.3289474 L4.33333333,14.9868421 C4.33333333,14.6017424 4.9015008,14.3157895 5.66666667,14.3157895 Z M8.88888889,14.3157895 L8.88888889,17 L16,17 L16,14.3157895 L8.88888889,14.3157895 Z" id="Shape"></path>
            </g>
        </g>
    </g>
</svg>