<?xml version="1.0" encoding="UTF-8"?>
<svg height="24px" viewBox="0 0 24 24" version="1.1" xmlns="http://www.w3.org/2000/svg" xmlns:xlink="http://www.w3.org/1999/xlink">
    <title>icons8-view (3)</title>
    <g id="3rd-Iteration" stroke="none" stroke-width="1" fill="none" fill-rule="evenodd">
        <g id="Viewer-option---tooltips" transform="translate(-372.000000, -678.000000)" fill="#949597" fill-rule="nonzero">
            <g id="Group-13" transform="translate(350.000000, 659.000000)">
                <g id="icons8-view-(3)" transform="translate(22.000000, 19.000000)">
                    <path d="M14.5,7 L9,7 L9,1.5 L14.5,7 Z M20,20.6 L18.2,18.8 C18.7,18 19,17 19,16 C19,13.2 16.8,11 14,11 C11.2,11 9,13.2 9,16 C9,18.8 11.2,21 14,21 C15,21 16,20.7 16.8,20.2 L18.6,22 L20,20.6 Z M14,19 C12.3,19 11,17.7 11,16 C11,14.3 12.3,13 14,13 C15.7,13 17,14.3 17,16 C17,17.7 15.7,19 14,19 Z" id="Shape"></path>
                    <path d="M7.294,18 L2,18 L2,2 L9.172,2 L14,6.828 L14,9 C14.695,9 15.366,9.105 16,9.294 L16,6 L10,0 L2,0 C0.897,0 0,0.897 0,2 L0,18 C0,19.103 0.897,20 2,20 L8.26,20 C7.838,19.396 7.509,18.723 7.294,18 Z" id="Path"></path>
                </g>
            </g>
        </g>
    </g>
</svg>